<svg width="38" height="38" viewBox="0 0 38 38" fill="none" xmlns="http://www.w3.org/2000/svg">
<path d="M7.86011 0C7.88261 0.0104869 7.90661 0.0329583 7.92686 0.0299621C8.61012 -0.0696634 8.70687 0.409737 8.85087 0.907115C9.98789 4.83421 11.1379 8.75855 12.3009 12.6802C12.3887 12.9798 12.3399 13.1131 12.0534 13.2464C10.9284 13.7708 9.81313 14.3191 8.64611 14.8824C11.2644 21.9693 16.0787 26.7985 23.1776 29.3993C23.2473 29.2749 23.3066 29.1843 23.3523 29.0869C23.8578 28.0187 24.3671 26.9521 24.8621 25.8787C24.9716 25.6404 25.0871 25.591 25.3488 25.6674C29.4259 26.8614 33.506 28.0459 37.589 29.221C37.8373 29.2959 37.9183 29.4315 37.9468 29.6614C38.4425 33.6097 35.6555 37.3266 31.7022 37.8944C30.7122 38.0367 29.6854 38.0105 28.6811 37.9566C26.1937 37.8247 23.7334 37.3754 21.3603 36.6195C16.3217 35.0179 11.7844 32.1401 8.19049 28.2665C4.59656 24.3929 2.06855 19.6556 0.852761 14.5161C0.392417 12.6017 0.127805 10.6456 0.0629983 8.6779C0.0577482 8.50637 0.0217503 8.33558 0 8.16479V7.11611C0.0300004 6.89588 0.0502516 6.67416 0.0900021 6.45618C0.66976 3.30337 2.45628 1.21273 5.54708 0.28839C6.02933 0.14457 6.53934 0.093633 7.0366 0H7.86011Z" fill="#DBAC16"/>
</svg>
